name C:\Users\u0101727\Documents\MyRepositories\upper-imu-dc\Results\main_tracking\Case_47\kinematics_filtered.mot
datacolumns 10
datarows 18
range 2.12000000 2.29000000
endheader 
time	clav_prot	clav_elev	scapula_abduction	scapula_elevation	scapula_upward_rot	scapula_winging	plane_elv	shoulder_elv	axial_rot	
          2.12000000	        -24.36623140	          2.96203486	          5.08721803	         -4.80024023	         44.80866914	         -3.78564271	         61.87766241	         58.59163297	        -15.64698881	
          2.13000000	        -24.44880474	          3.15639611	          5.23809239	         -4.71173607	         45.23765416	         -3.90531885	         61.88567337	         59.03582458	        -15.44182030	
          2.14000000	        -24.53455629	          3.34742521	          5.38608971	         -4.62506136	         45.66810063	         -4.02281393	         61.87941006	         59.47908147	        -15.25674183	
          2.15000000	        -24.62329304	          3.53482175	          5.53093439	         -4.54031335	         46.09915628	         -4.13795616	         61.85946235	         59.92140220	        -15.09069824	
          2.16000000	        -24.71484918	          3.71834306	          5.67230781	         -4.45756018	         46.53000090	         -4.25060513	         61.82647987	         60.36276627	        -14.94222508	
          2.17000000	        -24.80909332	          3.89780989	          5.80985467	         -4.37683962	         46.95987143	         -4.36065635	         61.78116867	         60.80313212	        -14.80949705	
          2.18000000	        -24.90593430	          4.07310880	          5.94319033	         -4.29815935	         47.38808376	         -4.46804405	         61.72428600	         61.24243466	        -14.69038575	
          2.19000000	        -25.00532497	          4.24419091	          6.07190926	         -4.22149908	         47.81404992	         -4.57274205	         61.65663203	         61.68058280	        -14.58252584	
          2.20000000	        -25.10726327	          4.41106632	          6.19559492	         -4.14681473	         48.23728979	         -4.67476265	         61.57903788	         62.11745722	        -14.48338887	
          2.21000000	        -25.21179020	          4.57379448	          6.31383135	         -4.07404459	         48.65743656	         -4.77415333	         61.49234934	         62.55290914	        -14.39036412	
          2.22000000	        -25.31898454	          4.73247062	          6.42621620	         -4.00311739	         49.07423568	         -4.87099155	         61.39740687	         62.98676052	        -14.30084499	
          2.23000000	        -25.42895431	          4.88720910	          6.53237528	         -3.93396175	         49.48753760	         -4.96537785	         61.29502273	         63.41880633	        -14.21231894	
          2.24000000	        -25.54182567	          5.03812480	          6.63197757	         -3.86651652	         49.89728510	         -5.05742780	         61.18595666	         63.84881924	        -14.12245742	
          2.25000000	        -25.65772994	          5.18531425	          6.72475031	         -3.80074089	         50.30349653	         -5.14726344	         61.07089234	         64.27655655	        -14.02920175	
          2.26000000	        -25.77678976	          5.32883816	          6.81049297	         -3.73662348	         50.70624660	         -5.23500490	         60.95041635	         64.70176933	        -13.93083936	
          2.27000000	        -25.89910552	          5.46870738	          6.88908924	         -3.67418912	         51.10564666	         -5.32076290	         60.82500184	         65.12421281	        -13.82606545	
          2.28000000	        -26.02474295	          5.60487400	          6.96051645	         -3.61350244	         51.50182602	         -5.40463283	         60.69499819	         65.54365749	        -13.71402502	
          2.29000000	        -26.15372270	          5.73722871	          7.02485157	         -3.55466753	         51.89491593	         -5.48669079	         60.56062766	         65.95989983	        -13.59433218	
